<svg xmlns="http://www.w3.org/2000/svg" width="1200" height="360" viewBox="0 0 1200 360" role="img" aria-label="pick3"><rect width="1200" height="360" fill="#F3F5FE"/><g transform="translate(432.92 228.02)"><path d="M27.59 26.94L8.25 26.94L8.25-72.06L27.26-72.06L27.26-59.94L28.17-59.94Q29.52-62.78 32-65.81Q34.48-68.84 38.54-70.90Q42.60-72.96 48.73-72.96Q56.72-72.96 63.36-68.84Q70-64.71 73.96-56.46Q77.92-48.21 77.92-35.90Q77.92-23.91 74.06-15.63Q70.19-7.35 63.55-3.06Q56.91 1.22 48.60 1.22Q42.73 1.22 38.67-0.77Q34.61-2.77 32.07-5.70Q29.52-8.64 28.17-11.54L27.59-11.54L27.59 26.94M42.67-14.31Q47.70-14.31 51.14-17.08Q54.59-19.85 56.36-24.75Q58.14-29.65 58.14-35.96Q58.14-42.28 56.36-47.12Q54.59-51.95 51.18-54.72Q47.76-57.49 42.67-57.49Q37.71-57.49 34.22-54.82Q30.74-52.14 28.94-47.34Q27.13-42.54 27.13-35.96Q27.13-29.46 28.97-24.59Q30.81-19.72 34.29-17.02Q37.77-14.31 42.67-14.31 M106.17 0L86.84 0L86.84-72.06L106.17-72.06L106.17 0M96.51-81.47Q92.12-81.47 89.03-84.37Q85.94-87.27 85.94-91.39Q85.94-95.52 89.03-98.42Q92.12-101.32 96.51-101.32Q100.89-101.32 104.02-98.45Q107.14-95.58 107.14-91.39Q107.14-87.27 104.02-84.37Q100.89-81.47 96.51-81.47 M150.22 1.42Q139.32 1.42 131.43-3.25Q123.53-7.93 119.25-16.27Q114.96-24.62 114.96-35.71Q114.96-46.92 119.25-55.27Q123.53-63.62 131.43-68.29Q139.32-72.96 150.22-72.96Q156.60-72.96 162.01-71.29Q167.43-69.61 171.62-66.52Q175.80-63.42 178.51-58.97Q181.22-54.53 182.25-48.98L164.27-45.63Q163.69-48.47 162.46-50.69Q161.24-52.92 159.50-54.50Q157.76-56.07 155.47-56.91Q153.18-57.75 150.41-57.75Q145.25-57.75 141.74-54.98Q138.23-52.21 136.46-47.24Q134.68-42.28 134.68-35.77Q134.68-29.39 136.46-24.43Q138.23-19.46 141.74-16.63Q145.25-13.79 150.41-13.79Q153.18-13.79 155.50-14.66Q157.82-15.53 159.63-17.18Q161.43-18.82 162.66-21.14Q163.88-23.46 164.40-26.36L182.38-23.07Q181.35-17.34 178.64-12.86Q175.93-8.38 171.74-5.16Q167.55-1.93 162.11-0.26Q156.66 1.42 150.22 1.42 M221.72-35.90L208.57-21.08L208.57-44.34L211.47-44.34L235.06-72.06L257.42-72.06L226.29-35.90L221.72-35.90M210.37 0L191.04 0L191.04-96.04L210.37-96.04L210.37 0M258.78 0L236.02 0L214.37-31.58L227.32-45.31" fill="#292B31"/><g transform="translate(219.89 -134.33) scale(0.61)"><path d="M92 78 H156 a32 32 0 0 1 0 64 H136" fill="none" stroke="#D685AD" stroke-width="30" stroke-linecap="round"/><path d="M136 142 H156 a32 32 0 0 1 0 64 H92" fill="none" stroke="#6F35FC" stroke-width="30" stroke-linecap="round"/><circle cx="92" cy="78" r="15" fill="#C22E28"/><circle cx="92" cy="206" r="15" fill="#C22E28"/></g></g></svg>
